<mxfile host="65bd71144e">
    <diagram id="fN6vehHM5HNglt4mohaX" name="Page-1">
        <mxGraphModel dx="2377" dy="1746" grid="1" gridSize="10" guides="1" tooltips="1" connect="1" arrows="1" fold="1" page="1" pageScale="1" pageWidth="850" pageHeight="1100" math="0" shadow="0" adaptiveColors="none">
            <root>
                <mxCell id="0"/>
                <mxCell id="1" parent="0"/>
                <mxCell id="2" value="" style="rounded=0;whiteSpace=wrap;html=1;rotation=-90;" vertex="1" parent="1">
                    <mxGeometry x="255" y="460" width="340" height="180" as="geometry"/>
                </mxCell>
                <mxCell id="3" value="" style="rounded=0;whiteSpace=wrap;html=1;rotation=45;" vertex="1" parent="1">
                    <mxGeometry x="109" y="268" width="290" height="60" as="geometry"/>
                </mxCell>
                <mxCell id="4" value="" style="rounded=0;whiteSpace=wrap;html=1;rotation=45;" vertex="1" parent="1">
                    <mxGeometry x="450" y="770" width="290" height="60" as="geometry"/>
                </mxCell>
                <mxCell id="5" value="" style="rounded=0;whiteSpace=wrap;html=1;rotation=-225;" vertex="1" parent="1">
                    <mxGeometry x="450" y="268" width="290" height="60" as="geometry"/>
                </mxCell>
                <mxCell id="6" value="" style="rounded=0;whiteSpace=wrap;html=1;rotation=-225;" vertex="1" parent="1">
                    <mxGeometry x="109" y="770" width="290" height="60" as="geometry"/>
                </mxCell>
                <mxCell id="10" value="" style="group" vertex="1" connectable="0" parent="1">
                    <mxGeometry x="40.39745962155612" y="82.39745962155612" width="274.86750196260937" height="273.2050807568878" as="geometry"/>
                </mxCell>
                <mxCell id="7" value="" style="verticalLabelPosition=bottom;verticalAlign=top;html=1;shape=mxgraph.basic.arc;startAngle=0.3;endAngle=0.1;rotation=60;" vertex="1" parent="10">
                    <mxGeometry x="36.60254037844388" y="36.60254037844388" width="200" height="200" as="geometry"/>
                </mxCell>
                <mxCell id="9" value="" style="shape=partialRectangle;whiteSpace=wrap;html=1;top=0;left=0;fillColor=none;rotation=40;" vertex="1" parent="10">
                    <mxGeometry x="202.60254037844388" y="75.60254037844388" width="60" height="60" as="geometry"/>
                </mxCell>
                <mxCell id="21" value="&lt;font style=&quot;font-size: 44px;&quot;&gt;&lt;b style=&quot;&quot;&gt;FL&lt;/b&gt;&lt;/font&gt;" style="rounded=0;whiteSpace=wrap;html=1;" vertex="1" parent="10">
                    <mxGeometry x="69.6025403784439" y="97.60254037844388" width="120" height="60" as="geometry"/>
                </mxCell>
                <mxCell id="11" value="" style="group;rotation=-195;" vertex="1" connectable="0" parent="1">
                    <mxGeometry x="529.9974596215561" y="709.9974596215561" width="290.002540378444" height="273.2050807568878" as="geometry"/>
                </mxCell>
                <mxCell id="12" value="" style="verticalLabelPosition=bottom;verticalAlign=top;html=1;shape=mxgraph.basic.arc;startAngle=0.3;endAngle=0.1;rotation=-135;" vertex="1" parent="11">
                    <mxGeometry x="38" y="37" width="200" height="200" as="geometry"/>
                </mxCell>
                <mxCell id="13" value="" style="shape=partialRectangle;whiteSpace=wrap;html=1;top=0;left=0;fillColor=none;rotation=-155;" vertex="1" parent="11">
                    <mxGeometry x="23" y="161" width="60" height="60" as="geometry"/>
                </mxCell>
                <mxCell id="24" value="&lt;font style=&quot;font-size: 44px;&quot;&gt;&lt;b style=&quot;&quot;&gt;RR&lt;/b&gt;&lt;/font&gt;" style="rounded=0;whiteSpace=wrap;html=1;" vertex="1" parent="11">
                    <mxGeometry x="90.002540378444" y="150.0025403784439" width="120" height="60" as="geometry"/>
                </mxCell>
                <mxCell id="14" value="" style="group;rotation=90;" vertex="1" connectable="0" parent="1">
                    <mxGeometry x="549.9974596215561" y="69.99745962155612" width="274.86750196260937" height="273.2050807568878" as="geometry"/>
                </mxCell>
                <mxCell id="15" value="" style="verticalLabelPosition=bottom;verticalAlign=top;html=1;shape=mxgraph.basic.arc;startAngle=0.3;endAngle=0.1;rotation=150;" vertex="1" parent="14">
                    <mxGeometry x="37" y="36" width="200" height="200" as="geometry"/>
                </mxCell>
                <mxCell id="16" value="" style="shape=partialRectangle;whiteSpace=wrap;html=1;top=0;left=0;fillColor=none;rotation=40;" vertex="1" parent="14">
                    <mxGeometry x="8" y="90" width="57.17" height="55.6" as="geometry"/>
                </mxCell>
                <mxCell id="20" value="&lt;font style=&quot;font-size: 44px;&quot;&gt;&lt;b style=&quot;&quot;&gt;FR&lt;/b&gt;&lt;/font&gt;" style="rounded=0;whiteSpace=wrap;html=1;" vertex="1" parent="14">
                    <mxGeometry x="77.43254037844383" y="106.00254037844388" width="120" height="60" as="geometry"/>
                </mxCell>
                <mxCell id="17" value="" style="group;rotation=-90;" vertex="1" connectable="0" parent="1">
                    <mxGeometry x="39.99745962155612" y="749.9974596215561" width="274.86750196260937" height="273.2050807568878" as="geometry"/>
                </mxCell>
                <mxCell id="18" value="" style="verticalLabelPosition=bottom;verticalAlign=top;html=1;shape=mxgraph.basic.arc;startAngle=0.3;endAngle=0.1;rotation=-30;" vertex="1" parent="17">
                    <mxGeometry x="38" y="37" width="200" height="200" as="geometry"/>
                </mxCell>
                <mxCell id="19" value="" style="shape=partialRectangle;whiteSpace=wrap;html=1;top=0;left=0;fillColor=none;rotation=-140;" vertex="1" parent="17">
                    <mxGeometry x="210" y="128" width="57.17" height="55.6" as="geometry"/>
                </mxCell>
                <mxCell id="22" value="&lt;font style=&quot;font-size: 44px;&quot;&gt;&lt;b style=&quot;&quot;&gt;RL&lt;/b&gt;&lt;/font&gt;" style="rounded=0;whiteSpace=wrap;html=1;" vertex="1" parent="17">
                    <mxGeometry x="77.43254037844392" y="106.6025403784439" width="120" height="60" as="geometry"/>
                </mxCell>
            </root>
        </mxGraphModel>
    </diagram>
</mxfile>